# xmcd CD database file
#
# Track frame offsets:
#	150
#	24750
#	47272
#	77922
#	99654
#	115372
#	135503
#	158587
#	178868
#	201368
#	224565
#	248926
#
# Disc length: 3589 seconds
#
# Revision: 7
# Processed by: cddbd v1.5.2PL0 Copyright (c) Steve Scherf et al.
# Submitted via: CDex 1.51
#
DISCID=a00e030c
DTITLE=Various Artist - Reiki - Music for the harmonious spirit
DYEAR=2002
DGENRE=New Age
TTITLE0=Voyage To Freedom
TTITLE1=Mystery
TTITLE2=Touch Of Love
TTITLE3=The Wise Old Tree
TTITLE4=After The Hurricane
TTITLE5=Body Harmonics
TTITLE6=Letters Of Inspiration
TTITLE7=The Magic Castle
TTITLE8=Aura
TTITLE9=Communication From The Heart
TTITLE10=Spiritual Path
TTITLE11=Enlightenment
EXTD=YEAR: 2002
EXTT0=
EXTT1=
EXTT2=
EXTT3=
EXTT4=
EXTT5=
EXTT6=
EXTT7=
EXTT8=
EXTT9=
EXTT10=
EXTT11=
PLAYORDER=
